<mxfile host="app.diagrams.net" modified="2022-11-01T08:37:49.076Z" agent="5.0 (Windows NT 10.0; Win64; x64) AppleWebKit/537.36 (KHTML, like Gecko) Chrome/106.0.0.0 Safari/537.36" etag="Oaki9ySB0LtdhxFX72dz" version="20.5.1" type="github">
  <diagram id="lsZd6S8BdNSRwNu5HTDz" name="Page-1">
    <mxGraphModel dx="1209" dy="674" grid="1" gridSize="10" guides="1" tooltips="1" connect="1" arrows="1" fold="1" page="1" pageScale="1" pageWidth="850" pageHeight="1100" math="0" shadow="0">
      <root>
        <mxCell id="0" />
        <mxCell id="1" parent="0" />
        <mxCell id="QX6sJhiEThLdqiG9uV32-77" value="STUDENT" style="swimlane;fontStyle=0;childLayout=stackLayout;horizontal=1;startSize=26;horizontalStack=0;resizeParent=1;resizeParentMax=0;resizeLast=0;collapsible=1;marginBottom=0;align=center;fontSize=14;" vertex="1" parent="1">
          <mxGeometry x="225" y="40" width="160" height="236" as="geometry" />
        </mxCell>
        <mxCell id="QX6sJhiEThLdqiG9uV32-78" value="StudentID" style="text;strokeColor=none;fillColor=none;spacingLeft=4;spacingRight=4;overflow=hidden;rotatable=0;points=[[0,0.5],[1,0.5]];portConstraint=eastwest;fontSize=12;fontStyle=4" vertex="1" parent="QX6sJhiEThLdqiG9uV32-77">
          <mxGeometry y="26" width="160" height="30" as="geometry" />
        </mxCell>
        <mxCell id="QX6sJhiEThLdqiG9uV32-79" value="FName" style="text;strokeColor=none;fillColor=none;spacingLeft=4;spacingRight=4;overflow=hidden;rotatable=0;points=[[0,0.5],[1,0.5]];portConstraint=eastwest;fontSize=12;" vertex="1" parent="QX6sJhiEThLdqiG9uV32-77">
          <mxGeometry y="56" width="160" height="30" as="geometry" />
        </mxCell>
        <mxCell id="QX6sJhiEThLdqiG9uV32-80" value="LName" style="text;strokeColor=none;fillColor=none;spacingLeft=4;spacingRight=4;overflow=hidden;rotatable=0;points=[[0,0.5],[1,0.5]];portConstraint=eastwest;fontSize=12;" vertex="1" parent="QX6sJhiEThLdqiG9uV32-77">
          <mxGeometry y="86" width="160" height="30" as="geometry" />
        </mxCell>
        <mxCell id="QX6sJhiEThLdqiG9uV32-81" value="Month" style="text;strokeColor=none;fillColor=none;spacingLeft=4;spacingRight=4;overflow=hidden;rotatable=0;points=[[0,0.5],[1,0.5]];portConstraint=eastwest;fontSize=12;" vertex="1" parent="QX6sJhiEThLdqiG9uV32-77">
          <mxGeometry y="116" width="160" height="30" as="geometry" />
        </mxCell>
        <mxCell id="QX6sJhiEThLdqiG9uV32-82" value="Day" style="text;strokeColor=none;fillColor=none;spacingLeft=4;spacingRight=4;overflow=hidden;rotatable=0;points=[[0,0.5],[1,0.5]];portConstraint=eastwest;fontSize=12;" vertex="1" parent="QX6sJhiEThLdqiG9uV32-77">
          <mxGeometry y="146" width="160" height="30" as="geometry" />
        </mxCell>
        <mxCell id="QX6sJhiEThLdqiG9uV32-83" value="Year" style="text;strokeColor=none;fillColor=none;spacingLeft=4;spacingRight=4;overflow=hidden;rotatable=0;points=[[0,0.5],[1,0.5]];portConstraint=eastwest;fontSize=12;" vertex="1" parent="QX6sJhiEThLdqiG9uV32-77">
          <mxGeometry y="176" width="160" height="30" as="geometry" />
        </mxCell>
        <mxCell id="QX6sJhiEThLdqiG9uV32-114" value="Age" style="text;strokeColor=none;fillColor=none;spacingLeft=4;spacingRight=4;overflow=hidden;rotatable=0;points=[[0,0.5],[1,0.5]];portConstraint=eastwest;fontSize=12;" vertex="1" parent="QX6sJhiEThLdqiG9uV32-77">
          <mxGeometry y="206" width="160" height="30" as="geometry" />
        </mxCell>
        <mxCell id="QX6sJhiEThLdqiG9uV32-84" value="TEACHER" style="swimlane;fontStyle=0;childLayout=stackLayout;horizontal=1;startSize=26;horizontalStack=0;resizeParent=1;resizeParentMax=0;resizeLast=0;collapsible=1;marginBottom=0;align=center;fontSize=14;" vertex="1" parent="1">
          <mxGeometry x="645" y="290" width="160" height="206" as="geometry" />
        </mxCell>
        <mxCell id="QX6sJhiEThLdqiG9uV32-85" value="CertificateID" style="text;strokeColor=none;fillColor=none;spacingLeft=4;spacingRight=4;overflow=hidden;rotatable=0;points=[[0,0.5],[1,0.5]];portConstraint=eastwest;fontSize=12;fontStyle=4" vertex="1" parent="QX6sJhiEThLdqiG9uV32-84">
          <mxGeometry y="26" width="160" height="30" as="geometry" />
        </mxCell>
        <mxCell id="QX6sJhiEThLdqiG9uV32-86" value="FName" style="text;strokeColor=none;fillColor=none;spacingLeft=4;spacingRight=4;overflow=hidden;rotatable=0;points=[[0,0.5],[1,0.5]];portConstraint=eastwest;fontSize=12;" vertex="1" parent="QX6sJhiEThLdqiG9uV32-84">
          <mxGeometry y="56" width="160" height="30" as="geometry" />
        </mxCell>
        <mxCell id="QX6sJhiEThLdqiG9uV32-87" value="LName" style="text;strokeColor=none;fillColor=none;spacingLeft=4;spacingRight=4;overflow=hidden;rotatable=0;points=[[0,0.5],[1,0.5]];portConstraint=eastwest;fontSize=12;" vertex="1" parent="QX6sJhiEThLdqiG9uV32-84">
          <mxGeometry y="86" width="160" height="30" as="geometry" />
        </mxCell>
        <mxCell id="QX6sJhiEThLdqiG9uV32-88" value="Prefix" style="text;strokeColor=none;fillColor=none;spacingLeft=4;spacingRight=4;overflow=hidden;rotatable=0;points=[[0,0.5],[1,0.5]];portConstraint=eastwest;fontSize=12;" vertex="1" parent="QX6sJhiEThLdqiG9uV32-84">
          <mxGeometry y="116" width="160" height="30" as="geometry" />
        </mxCell>
        <mxCell id="QX6sJhiEThLdqiG9uV32-90" value="NumStudents" style="text;strokeColor=none;fillColor=none;spacingLeft=4;spacingRight=4;overflow=hidden;rotatable=0;points=[[0,0.5],[1,0.5]];portConstraint=eastwest;fontSize=12;" vertex="1" parent="QX6sJhiEThLdqiG9uV32-84">
          <mxGeometry y="146" width="160" height="30" as="geometry" />
        </mxCell>
        <mxCell id="QX6sJhiEThLdqiG9uV32-137" style="edgeStyle=orthogonalEdgeStyle;rounded=0;orthogonalLoop=1;jettySize=auto;html=1;exitX=1;exitY=0.5;exitDx=0;exitDy=0;entryX=1;entryY=0.5;entryDx=0;entryDy=0;" edge="1" parent="QX6sJhiEThLdqiG9uV32-84" source="QX6sJhiEThLdqiG9uV32-136" target="QX6sJhiEThLdqiG9uV32-85">
          <mxGeometry relative="1" as="geometry">
            <Array as="points">
              <mxPoint x="160" y="190" />
              <mxPoint x="180" y="190" />
              <mxPoint x="180" y="41" />
            </Array>
          </mxGeometry>
        </mxCell>
        <mxCell id="QX6sJhiEThLdqiG9uV32-136" value="LeadTCertificateID" style="text;strokeColor=none;fillColor=none;spacingLeft=4;spacingRight=4;overflow=hidden;rotatable=0;points=[[0,0.5],[1,0.5]];portConstraint=eastwest;fontSize=12;fontStyle=4" vertex="1" parent="QX6sJhiEThLdqiG9uV32-84">
          <mxGeometry y="176" width="160" height="30" as="geometry" />
        </mxCell>
        <mxCell id="QX6sJhiEThLdqiG9uV32-91" value="GAURDIAN" style="swimlane;fontStyle=0;childLayout=stackLayout;horizontal=1;startSize=26;horizontalStack=0;resizeParent=1;resizeParentMax=0;resizeLast=0;collapsible=1;marginBottom=0;align=center;fontSize=14;" vertex="1" parent="1">
          <mxGeometry x="645" y="40" width="160" height="206" as="geometry" />
        </mxCell>
        <mxCell id="QX6sJhiEThLdqiG9uV32-108" value="GaurdianID" style="text;strokeColor=none;fillColor=none;spacingLeft=4;spacingRight=4;overflow=hidden;rotatable=0;points=[[0,0.5],[1,0.5]];portConstraint=eastwest;fontSize=12;fontStyle=4" vertex="1" parent="QX6sJhiEThLdqiG9uV32-91">
          <mxGeometry y="26" width="160" height="30" as="geometry" />
        </mxCell>
        <mxCell id="QX6sJhiEThLdqiG9uV32-93" value="FName" style="text;strokeColor=none;fillColor=none;spacingLeft=4;spacingRight=4;overflow=hidden;rotatable=0;points=[[0,0.5],[1,0.5]];portConstraint=eastwest;fontSize=12;fontStyle=4" vertex="1" parent="QX6sJhiEThLdqiG9uV32-91">
          <mxGeometry y="56" width="160" height="30" as="geometry" />
        </mxCell>
        <mxCell id="QX6sJhiEThLdqiG9uV32-94" value="LName" style="text;strokeColor=none;fillColor=none;spacingLeft=4;spacingRight=4;overflow=hidden;rotatable=0;points=[[0,0.5],[1,0.5]];portConstraint=eastwest;fontSize=12;fontStyle=4" vertex="1" parent="QX6sJhiEThLdqiG9uV32-91">
          <mxGeometry y="86" width="160" height="30" as="geometry" />
        </mxCell>
        <mxCell id="QX6sJhiEThLdqiG9uV32-95" value="Address" style="text;strokeColor=none;fillColor=none;spacingLeft=4;spacingRight=4;overflow=hidden;rotatable=0;points=[[0,0.5],[1,0.5]];portConstraint=eastwest;fontSize=12;" vertex="1" parent="QX6sJhiEThLdqiG9uV32-91">
          <mxGeometry y="116" width="160" height="30" as="geometry" />
        </mxCell>
        <mxCell id="QX6sJhiEThLdqiG9uV32-96" value="Email" style="text;strokeColor=none;fillColor=none;spacingLeft=4;spacingRight=4;overflow=hidden;rotatable=0;points=[[0,0.5],[1,0.5]];portConstraint=eastwest;fontSize=12;" vertex="1" parent="QX6sJhiEThLdqiG9uV32-91">
          <mxGeometry y="146" width="160" height="30" as="geometry" />
        </mxCell>
        <mxCell id="QX6sJhiEThLdqiG9uV32-97" value="PhoneNum" style="text;strokeColor=none;fillColor=none;spacingLeft=4;spacingRight=4;overflow=hidden;rotatable=0;points=[[0,0.5],[1,0.5]];portConstraint=eastwest;fontSize=12;" vertex="1" parent="QX6sJhiEThLdqiG9uV32-91">
          <mxGeometry y="176" width="160" height="30" as="geometry" />
        </mxCell>
        <mxCell id="QX6sJhiEThLdqiG9uV32-98" value="ALLERGY" style="swimlane;fontStyle=0;childLayout=stackLayout;horizontal=1;startSize=26;horizontalStack=0;resizeParent=1;resizeParentMax=0;resizeLast=0;collapsible=1;marginBottom=0;align=center;fontSize=14;" vertex="1" parent="1">
          <mxGeometry x="440" y="150" width="160" height="116" as="geometry" />
        </mxCell>
        <mxCell id="QX6sJhiEThLdqiG9uV32-101" value="SStudentID" style="text;strokeColor=none;fillColor=none;spacingLeft=4;spacingRight=4;overflow=hidden;rotatable=0;points=[[0,0.5],[1,0.5]];portConstraint=eastwest;fontSize=12;fontStyle=4" vertex="1" parent="QX6sJhiEThLdqiG9uV32-98">
          <mxGeometry y="26" width="160" height="30" as="geometry" />
        </mxCell>
        <mxCell id="QX6sJhiEThLdqiG9uV32-109" value="Type" style="text;strokeColor=none;fillColor=none;spacingLeft=4;spacingRight=4;overflow=hidden;rotatable=0;points=[[0,0.5],[1,0.5]];portConstraint=eastwest;fontSize=12;" vertex="1" parent="QX6sJhiEThLdqiG9uV32-98">
          <mxGeometry y="56" width="160" height="30" as="geometry" />
        </mxCell>
        <mxCell id="QX6sJhiEThLdqiG9uV32-102" value="Protocol" style="text;strokeColor=none;fillColor=none;spacingLeft=4;spacingRight=4;overflow=hidden;rotatable=0;points=[[0,0.5],[1,0.5]];portConstraint=eastwest;fontSize=12;" vertex="1" parent="QX6sJhiEThLdqiG9uV32-98">
          <mxGeometry y="86" width="160" height="30" as="geometry" />
        </mxCell>
        <mxCell id="QX6sJhiEThLdqiG9uV32-104" value="CONTACT" style="swimlane;fontStyle=0;childLayout=stackLayout;horizontal=1;startSize=26;horizontalStack=0;resizeParent=1;resizeParentMax=0;resizeLast=0;collapsible=1;marginBottom=0;align=center;fontSize=14;" vertex="1" parent="1">
          <mxGeometry x="225" y="300" width="160" height="146" as="geometry" />
        </mxCell>
        <mxCell id="QX6sJhiEThLdqiG9uV32-112" value="SStudentID" style="text;strokeColor=none;fillColor=none;spacingLeft=4;spacingRight=4;overflow=hidden;rotatable=0;points=[[0,0.5],[1,0.5]];portConstraint=eastwest;fontSize=12;fontStyle=4" vertex="1" parent="QX6sJhiEThLdqiG9uV32-104">
          <mxGeometry y="26" width="160" height="30" as="geometry" />
        </mxCell>
        <mxCell id="QX6sJhiEThLdqiG9uV32-105" value="FName" style="text;strokeColor=none;fillColor=none;spacingLeft=4;spacingRight=4;overflow=hidden;rotatable=0;points=[[0,0.5],[1,0.5]];portConstraint=eastwest;fontSize=12;fontStyle=4" vertex="1" parent="QX6sJhiEThLdqiG9uV32-104">
          <mxGeometry y="56" width="160" height="30" as="geometry" />
        </mxCell>
        <mxCell id="QX6sJhiEThLdqiG9uV32-106" value="LName" style="text;strokeColor=none;fillColor=none;spacingLeft=4;spacingRight=4;overflow=hidden;rotatable=0;points=[[0,0.5],[1,0.5]];portConstraint=eastwest;fontSize=12;fontStyle=4" vertex="1" parent="QX6sJhiEThLdqiG9uV32-104">
          <mxGeometry y="86" width="160" height="30" as="geometry" />
        </mxCell>
        <mxCell id="QX6sJhiEThLdqiG9uV32-107" value="PhoneNum" style="text;strokeColor=none;fillColor=none;spacingLeft=4;spacingRight=4;overflow=hidden;rotatable=0;points=[[0,0.5],[1,0.5]];portConstraint=eastwest;fontSize=12;" vertex="1" parent="QX6sJhiEThLdqiG9uV32-104">
          <mxGeometry y="116" width="160" height="30" as="geometry" />
        </mxCell>
        <mxCell id="QX6sJhiEThLdqiG9uV32-110" style="edgeStyle=orthogonalEdgeStyle;rounded=0;orthogonalLoop=1;jettySize=auto;html=1;exitX=0;exitY=0.5;exitDx=0;exitDy=0;entryX=1;entryY=0.5;entryDx=0;entryDy=0;" edge="1" parent="1" source="QX6sJhiEThLdqiG9uV32-101" target="QX6sJhiEThLdqiG9uV32-78">
          <mxGeometry relative="1" as="geometry">
            <Array as="points">
              <mxPoint x="440" y="190" />
              <mxPoint x="415" y="190" />
              <mxPoint x="415" y="81" />
            </Array>
          </mxGeometry>
        </mxCell>
        <mxCell id="QX6sJhiEThLdqiG9uV32-113" style="edgeStyle=orthogonalEdgeStyle;rounded=0;orthogonalLoop=1;jettySize=auto;html=1;exitX=1;exitY=0.5;exitDx=0;exitDy=0;entryX=1;entryY=0.5;entryDx=0;entryDy=0;" edge="1" parent="1" source="QX6sJhiEThLdqiG9uV32-112" target="QX6sJhiEThLdqiG9uV32-78">
          <mxGeometry relative="1" as="geometry">
            <Array as="points">
              <mxPoint x="415" y="341" />
              <mxPoint x="415" y="81" />
            </Array>
          </mxGeometry>
        </mxCell>
        <mxCell id="QX6sJhiEThLdqiG9uV32-115" value="REGISTERS" style="swimlane;fontStyle=0;childLayout=stackLayout;horizontal=1;startSize=26;horizontalStack=0;resizeParent=1;resizeParentMax=0;resizeLast=0;collapsible=1;marginBottom=0;align=center;fontSize=14;" vertex="1" parent="1">
          <mxGeometry x="440" y="40" width="160" height="86" as="geometry" />
        </mxCell>
        <mxCell id="QX6sJhiEThLdqiG9uV32-116" value="SStudentID" style="text;strokeColor=none;fillColor=none;spacingLeft=4;spacingRight=4;overflow=hidden;rotatable=0;points=[[0,0.5],[1,0.5]];portConstraint=eastwest;fontSize=12;fontStyle=4" vertex="1" parent="QX6sJhiEThLdqiG9uV32-115">
          <mxGeometry y="26" width="160" height="30" as="geometry" />
        </mxCell>
        <mxCell id="QX6sJhiEThLdqiG9uV32-117" value="GGaurdianID" style="text;strokeColor=none;fillColor=none;spacingLeft=4;spacingRight=4;overflow=hidden;rotatable=0;points=[[0,0.5],[1,0.5]];portConstraint=eastwest;fontSize=12;fontStyle=4" vertex="1" parent="QX6sJhiEThLdqiG9uV32-115">
          <mxGeometry y="56" width="160" height="30" as="geometry" />
        </mxCell>
        <mxCell id="QX6sJhiEThLdqiG9uV32-120" style="edgeStyle=orthogonalEdgeStyle;rounded=0;orthogonalLoop=1;jettySize=auto;html=1;exitX=1;exitY=0.5;exitDx=0;exitDy=0;entryX=0;entryY=0.5;entryDx=0;entryDy=0;" edge="1" parent="1" source="QX6sJhiEThLdqiG9uV32-117" target="QX6sJhiEThLdqiG9uV32-108">
          <mxGeometry relative="1" as="geometry" />
        </mxCell>
        <mxCell id="QX6sJhiEThLdqiG9uV32-121" style="edgeStyle=orthogonalEdgeStyle;rounded=0;orthogonalLoop=1;jettySize=auto;html=1;exitX=0;exitY=0.5;exitDx=0;exitDy=0;entryX=1;entryY=0.5;entryDx=0;entryDy=0;" edge="1" parent="1" source="QX6sJhiEThLdqiG9uV32-116" target="QX6sJhiEThLdqiG9uV32-78">
          <mxGeometry relative="1" as="geometry" />
        </mxCell>
        <mxCell id="QX6sJhiEThLdqiG9uV32-123" value="TAUGHT_BY" style="swimlane;fontStyle=0;childLayout=stackLayout;horizontal=1;startSize=26;horizontalStack=0;resizeParent=1;resizeParentMax=0;resizeLast=0;collapsible=1;marginBottom=0;align=center;fontSize=14;" vertex="1" parent="1">
          <mxGeometry x="440" y="290" width="160" height="116" as="geometry" />
        </mxCell>
        <mxCell id="QX6sJhiEThLdqiG9uV32-124" value="SStudentID" style="text;strokeColor=none;fillColor=none;spacingLeft=4;spacingRight=4;overflow=hidden;rotatable=0;points=[[0,0.5],[1,0.5]];portConstraint=eastwest;fontSize=12;fontStyle=4" vertex="1" parent="QX6sJhiEThLdqiG9uV32-123">
          <mxGeometry y="26" width="160" height="30" as="geometry" />
        </mxCell>
        <mxCell id="QX6sJhiEThLdqiG9uV32-125" value="TCertificateID" style="text;strokeColor=none;fillColor=none;spacingLeft=4;spacingRight=4;overflow=hidden;rotatable=0;points=[[0,0.5],[1,0.5]];portConstraint=eastwest;fontSize=12;fontStyle=4" vertex="1" parent="QX6sJhiEThLdqiG9uV32-123">
          <mxGeometry y="56" width="160" height="30" as="geometry" />
        </mxCell>
        <mxCell id="QX6sJhiEThLdqiG9uV32-126" value="CurrentGrade" style="text;strokeColor=none;fillColor=none;spacingLeft=4;spacingRight=4;overflow=hidden;rotatable=0;points=[[0,0.5],[1,0.5]];portConstraint=eastwest;fontSize=12;fontStyle=0" vertex="1" parent="QX6sJhiEThLdqiG9uV32-123">
          <mxGeometry y="86" width="160" height="30" as="geometry" />
        </mxCell>
        <mxCell id="QX6sJhiEThLdqiG9uV32-128" style="edgeStyle=orthogonalEdgeStyle;rounded=0;orthogonalLoop=1;jettySize=auto;html=1;exitX=1;exitY=0.5;exitDx=0;exitDy=0;entryX=0;entryY=0.5;entryDx=0;entryDy=0;" edge="1" parent="1" source="QX6sJhiEThLdqiG9uV32-125" target="QX6sJhiEThLdqiG9uV32-85">
          <mxGeometry relative="1" as="geometry" />
        </mxCell>
        <mxCell id="QX6sJhiEThLdqiG9uV32-129" style="edgeStyle=orthogonalEdgeStyle;rounded=0;orthogonalLoop=1;jettySize=auto;html=1;exitX=0;exitY=0.5;exitDx=0;exitDy=0;entryX=1;entryY=0.5;entryDx=0;entryDy=0;" edge="1" parent="1" source="QX6sJhiEThLdqiG9uV32-124" target="QX6sJhiEThLdqiG9uV32-78">
          <mxGeometry relative="1" as="geometry">
            <Array as="points">
              <mxPoint x="440" y="330" />
              <mxPoint x="415" y="330" />
              <mxPoint x="415" y="81" />
            </Array>
          </mxGeometry>
        </mxCell>
        <mxCell id="QX6sJhiEThLdqiG9uV32-139" value="KINDERGARDEN" style="swimlane;fontStyle=0;childLayout=stackLayout;horizontal=1;startSize=26;horizontalStack=0;resizeParent=1;resizeParentMax=0;resizeLast=0;collapsible=1;marginBottom=0;align=center;fontSize=14;" vertex="1" parent="1">
          <mxGeometry x="25" y="40" width="160" height="86" as="geometry" />
        </mxCell>
        <mxCell id="QX6sJhiEThLdqiG9uV32-140" value="SStudentID" style="text;strokeColor=none;fillColor=none;spacingLeft=4;spacingRight=4;overflow=hidden;rotatable=0;points=[[0,0.5],[1,0.5]];portConstraint=eastwest;fontSize=12;fontStyle=4" vertex="1" parent="QX6sJhiEThLdqiG9uV32-139">
          <mxGeometry y="26" width="160" height="30" as="geometry" />
        </mxCell>
        <mxCell id="QX6sJhiEThLdqiG9uV32-141" value="AMvsPM" style="text;strokeColor=none;fillColor=none;spacingLeft=4;spacingRight=4;overflow=hidden;rotatable=0;points=[[0,0.5],[1,0.5]];portConstraint=eastwest;fontSize=12;fontStyle=0" vertex="1" parent="QX6sJhiEThLdqiG9uV32-139">
          <mxGeometry y="56" width="160" height="30" as="geometry" />
        </mxCell>
        <mxCell id="QX6sJhiEThLdqiG9uV32-142" value="ELEMENTARY" style="swimlane;fontStyle=0;childLayout=stackLayout;horizontal=1;startSize=26;horizontalStack=0;resizeParent=1;resizeParentMax=0;resizeLast=0;collapsible=1;marginBottom=0;align=center;fontSize=14;" vertex="1" parent="1">
          <mxGeometry x="25" y="150" width="160" height="86" as="geometry" />
        </mxCell>
        <mxCell id="QX6sJhiEThLdqiG9uV32-143" value="SStudentID" style="text;strokeColor=none;fillColor=none;spacingLeft=4;spacingRight=4;overflow=hidden;rotatable=0;points=[[0,0.5],[1,0.5]];portConstraint=eastwest;fontSize=12;fontStyle=4" vertex="1" parent="QX6sJhiEThLdqiG9uV32-142">
          <mxGeometry y="26" width="160" height="30" as="geometry" />
        </mxCell>
        <mxCell id="QX6sJhiEThLdqiG9uV32-144" value="Division" style="text;strokeColor=none;fillColor=none;spacingLeft=4;spacingRight=4;overflow=hidden;rotatable=0;points=[[0,0.5],[1,0.5]];portConstraint=eastwest;fontSize=12;fontStyle=0" vertex="1" parent="QX6sJhiEThLdqiG9uV32-142">
          <mxGeometry y="56" width="160" height="30" as="geometry" />
        </mxCell>
        <mxCell id="QX6sJhiEThLdqiG9uV32-145" style="edgeStyle=orthogonalEdgeStyle;rounded=0;orthogonalLoop=1;jettySize=auto;html=1;exitX=1;exitY=0.5;exitDx=0;exitDy=0;entryX=0;entryY=0.5;entryDx=0;entryDy=0;" edge="1" parent="1" source="QX6sJhiEThLdqiG9uV32-143" target="QX6sJhiEThLdqiG9uV32-78">
          <mxGeometry relative="1" as="geometry" />
        </mxCell>
        <mxCell id="QX6sJhiEThLdqiG9uV32-146" style="edgeStyle=orthogonalEdgeStyle;rounded=0;orthogonalLoop=1;jettySize=auto;html=1;exitX=1;exitY=0.5;exitDx=0;exitDy=0;" edge="1" parent="1" source="QX6sJhiEThLdqiG9uV32-140">
          <mxGeometry relative="1" as="geometry">
            <mxPoint x="225" y="81" as="targetPoint" />
          </mxGeometry>
        </mxCell>
        <mxCell id="QX6sJhiEThLdqiG9uV32-147" value="GRADELEVELS" style="swimlane;fontStyle=0;childLayout=stackLayout;horizontal=1;startSize=26;horizontalStack=0;resizeParent=1;resizeParentMax=0;resizeLast=0;collapsible=1;marginBottom=0;align=center;fontSize=14;" vertex="1" parent="1">
          <mxGeometry x="440" y="430" width="160" height="86" as="geometry" />
        </mxCell>
        <mxCell id="QX6sJhiEThLdqiG9uV32-148" value="TCertificateID" style="text;strokeColor=none;fillColor=none;spacingLeft=4;spacingRight=4;overflow=hidden;rotatable=0;points=[[0,0.5],[1,0.5]];portConstraint=eastwest;fontSize=12;fontStyle=4" vertex="1" parent="QX6sJhiEThLdqiG9uV32-147">
          <mxGeometry y="26" width="160" height="30" as="geometry" />
        </mxCell>
        <mxCell id="QX6sJhiEThLdqiG9uV32-149" value="GradeLevels" style="text;strokeColor=none;fillColor=none;spacingLeft=4;spacingRight=4;overflow=hidden;rotatable=0;points=[[0,0.5],[1,0.5]];portConstraint=eastwest;fontSize=12;fontStyle=4" vertex="1" parent="QX6sJhiEThLdqiG9uV32-147">
          <mxGeometry y="56" width="160" height="30" as="geometry" />
        </mxCell>
        <mxCell id="QX6sJhiEThLdqiG9uV32-153" style="edgeStyle=orthogonalEdgeStyle;rounded=0;orthogonalLoop=1;jettySize=auto;html=1;exitX=1;exitY=0.5;exitDx=0;exitDy=0;entryX=0;entryY=0.5;entryDx=0;entryDy=0;" edge="1" parent="1" source="QX6sJhiEThLdqiG9uV32-148" target="QX6sJhiEThLdqiG9uV32-85">
          <mxGeometry relative="1" as="geometry" />
        </mxCell>
      </root>
    </mxGraphModel>
  </diagram>
</mxfile>
